@startuml
left to right direction
skinparam shadowing false
skinparam nodesep 10
skinparam ranksep 40
skinparam classAttributeIconSize 0
skinparam class {
  FontStyle italic
  BackgroundColor<<rootconcept>> #FAC08F
  BorderColor<<rootconcept>> #E36C0A
  BackgroundColor<<data>> #B8CCE4
  BorderColor<<data>> #4F81BD
  BackgroundColor<<reference>> #D9D9D9
  BorderColor<<reference>> #808080
  BackgroundColor<<value set>> #C3D69B
  BorderColor<<value set>> #77933C
  ArrowColor #4F81BD
}
hide circle
hide empty members

class "BeModelBodySite" as BeModelBodySite <<rootconcept>> {
}

class "bodyLocation" as BeModelBodySite_bodyLocation <<data>> {
}

class "bodyLaterality" as BeModelBodySite_bodyLaterality <<data>> {
}

class "bodyTopography" as BeModelBodySite_bodyTopography <<data>> {
}

BeModelBodySite_bodyLocation "0..1" --> BeModelBodySite
BeModelBodySite_bodyLaterality "0..1" --> BeModelBodySite
BeModelBodySite_bodyTopography "0..1" --> BeModelBodySite
@enduml