@startuml
left to right direction
skinparam shadowing false
skinparam nodesep 10
skinparam ranksep 40
skinparam classAttributeIconSize 0
skinparam class {
  FontStyle italic
  BackgroundColor<<rootconcept>> #FAC08F
  BorderColor<<rootconcept>> #E36C0A
  BackgroundColor<<data>> #B8CCE4
  BorderColor<<data>> #4F81BD
  BackgroundColor<<reference>> #D9D9D9
  BorderColor<<reference>> #808080
  BackgroundColor<<value set>> #C3D69B
  BorderColor<<value set>> #77933C
  ArrowColor #4F81BD
}
hide circle
hide empty members

class "BeModelTreatmentStatus" as BeModelTreatmentStatus <<rootconcept>> {
}

class "identifier" as BeModelTreatmentStatus_identifier <<data>> {
}

class "startDate" as BeModelTreatmentStatus_startDate <<data>> {
}

class "endDate" as BeModelTreatmentStatus_endDate <<data>> {
}

class "status" as BeModelTreatmentStatus_status <<data>> {
}

class "genericRequestId" as BeModelTreatmentStatus_genericRequestId <<reference>> {
}

BeModelTreatmentStatus_identifier "1..1" --> BeModelTreatmentStatus
BeModelTreatmentStatus_startDate "0..1" --> BeModelTreatmentStatus
BeModelTreatmentStatus_endDate "0..1" --> BeModelTreatmentStatus
BeModelTreatmentStatus_status "1..1" --> BeModelTreatmentStatus
BeModelTreatmentStatus_genericRequestId "1..1" --> BeModelTreatmentStatus
@enduml