@startuml
left to right direction
skinparam shadowing false
skinparam nodesep 10
skinparam ranksep 40
skinparam classAttributeIconSize 0
skinparam class {
  FontStyle italic
  BackgroundColor<<rootconcept>> #FAC08F
  BorderColor<<rootconcept>> #E36C0A
  BackgroundColor<<data>> #B8CCE4
  BorderColor<<data>> #4F81BD
  BackgroundColor<<reference>> #D9D9D9
  BorderColor<<reference>> #808080
  BackgroundColor<<value set>> #C3D69B
  BorderColor<<value set>> #77933C
  ArrowColor #4F81BD
}
hide circle
hide empty members

class "BeModelAnnex81" as BeModelAnnex81 <<rootconcept>> {
}

class "identifier" as BeModelAnnex81_identifier <<data>> {
}

class "shortCode" as BeModelAnnex81_shortCode <<data>> {
}

class "recordedDate" as BeModelAnnex81_recordedDate <<data>> {
}

class "creationDate" as BeModelAnnex81_creationDate <<data>> {
}

class "author" as BeModelAnnex81_author <<data>> {
}

class "status" as BeModelAnnex81_status <<data>> {
}

class "statusReason" as BeModelAnnex81_statusReason <<data>> {
}

class "careRequested" as BeModelAnnex81_careRequested <<data>> {
}

class "patient" as BeModelAnnex81_patient <<data>> {
}

class "originRequestId" as BeModelAnnex81_originRequestId <<data>> {
}

class "validationStartDate" as BeModelAnnex81_validationStartDate <<data>> {
}

class "validationEndDate" as BeModelAnnex81_validationEndDate <<data>> {
}

class "problem" as BeModelAnnex81_problem <<data>> {
}

class "feedbackNeeded" as BeModelAnnex81_feedbackNeeded <<data>> {
}

BeModelAnnex81_identifier "1..1" --> BeModelAnnex81
BeModelAnnex81_shortCode "1..1" --> BeModelAnnex81
BeModelAnnex81_recordedDate "1..1" --> BeModelAnnex81
BeModelAnnex81_creationDate "1..1" --> BeModelAnnex81
BeModelAnnex81_author "1..1" --> BeModelAnnex81
BeModelAnnex81_status "1..1" --> BeModelAnnex81
BeModelAnnex81_statusReason "0..1" --> BeModelAnnex81
BeModelAnnex81_careRequested "1..1" --> BeModelAnnex81
BeModelAnnex81_patient "1..1" --> BeModelAnnex81
BeModelAnnex81_originRequestId "0..1" --> BeModelAnnex81
BeModelAnnex81_validationStartDate "1..1" --> BeModelAnnex81
BeModelAnnex81_validationEndDate "1..1" --> BeModelAnnex81
BeModelAnnex81_problem "0..*" --> BeModelAnnex81
BeModelAnnex81_feedbackNeeded "1..1" --> BeModelAnnex81
@enduml