@startuml
left to right direction
skinparam shadowing false
skinparam nodesep 10
skinparam ranksep 40
skinparam classAttributeIconSize 0
skinparam class {
  FontStyle italic
  BackgroundColor<<rootconcept>> #FAC08F
  BorderColor<<rootconcept>> #E36C0A
  BackgroundColor<<data>> #B8CCE4
  BorderColor<<data>> #4F81BD
  BackgroundColor<<reference>> #D9D9D9
  BorderColor<<reference>> #808080
  BackgroundColor<<value set>> #C3D69B
  BorderColor<<value set>> #77933C
  ArrowColor #4F81BD
}
hide circle
hide empty members

class "BeModeleBirthReport" as BeModeleBirthReport <<rootconcept>> {
}

class "identifier" as BeModeleBirthReport_identifier <<data>> {
}

class "businessIdentifier" as BeModeleBirthReport_businessIdentifier <<data>> {
}

class "recordedDate" as BeModeleBirthReport_recordedDate <<data>> {
}

class "observationPeriod" as BeModeleBirthReport_observationPeriod <<data>> {
}

class "encounter" as BeModeleBirthReport_encounter <<reference>> {
}

class "patient" as BeModeleBirthReport_patient <<reference>> {
}

class "recorder" as BeModeleBirthReport_recorder <<reference>> {
}

class "interpreter" as BeModeleBirthReport_interpreter <<reference>> {
}

class "status" as BeModeleBirthReport_status <<data>> {
}

class "category" as BeModeleBirthReport_category <<data>> {
}

class "code" as BeModeleBirthReport_code <<data>> {
}

class "observationsAtBirth" as BeModeleBirthReport_observationsAtBirth <<reference>> {
}

class "birthComplications" as BeModeleBirthReport_birthComplications <<reference>> {
}

class "note" as BeModeleBirthReport_note <<data>> {
}

class "document" as BeModeleBirthReport_document <<data>> {
}

BeModeleBirthReport_identifier "1..1" --> BeModeleBirthReport
BeModeleBirthReport_businessIdentifier "0..*" --> BeModeleBirthReport
BeModeleBirthReport_recordedDate "1..1" --> BeModeleBirthReport
BeModeleBirthReport_observationPeriod "1..1" --> BeModeleBirthReport
BeModeleBirthReport_encounter "0..*" --> BeModeleBirthReport
BeModeleBirthReport_patient "1..1" --> BeModeleBirthReport
BeModeleBirthReport_recorder "1..1" --> BeModeleBirthReport
BeModeleBirthReport_interpreter "0..*" --> BeModeleBirthReport
BeModeleBirthReport_status "1..1" --> BeModeleBirthReport
BeModeleBirthReport_category "1..*" --> BeModeleBirthReport
BeModeleBirthReport_code "1..1" --> BeModeleBirthReport
BeModeleBirthReport_observationsAtBirth "0..*" --> BeModeleBirthReport
BeModeleBirthReport_birthComplications "0..*" --> BeModeleBirthReport
BeModeleBirthReport_note "0..*" --> BeModeleBirthReport
BeModeleBirthReport_document "0..1" --> BeModeleBirthReport
@enduml