@startuml
left to right direction
skinparam shadowing false
skinparam nodesep 10
skinparam ranksep 40
skinparam classAttributeIconSize 0
skinparam class {
  FontStyle italic
  BackgroundColor<<rootconcept>> #FAC08F
  BorderColor<<rootconcept>> #E36C0A
  BackgroundColor<<data>> #B8CCE4
  BorderColor<<data>> #4F81BD
  BackgroundColor<<reference>> #D9D9D9
  BorderColor<<reference>> #808080
  BackgroundColor<<value set>> #C3D69B
  BorderColor<<value set>> #77933C
  ArrowColor #4F81BD
}
hide circle
hide empty members

class "BeModelEAgreementResponse" as BeModelEAgreementResponse <<rootconcept>> {
}

class "patient" as BeModelEAgreementResponse_patient <<data>> {
}

class "rejectionReason" as BeModelEAgreementResponse_rejectionReason <<data>> {
}

class "serviceProvider" as BeModelEAgreementResponse_serviceProvider <<data>> {
}

class "eAgreementType" as BeModelEAgreementResponse_eAgreementType <<data>> {
}

class "decisionId" as BeModelEAgreementResponse_decisionId <<data>> {
}

class "pathologicalSituation" as BeModelEAgreementResponse_pathologicalSituation <<data>> {
}

class "decisionType" as BeModelEAgreementResponse_decisionType <<data>> {
}

class "decisionDate" as BeModelEAgreementResponse_decisionDate <<data>> {
}

class "insurer" as BeModelEAgreementResponse_insurer <<data>> {
}

class "agreementStartDate" as BeModelEAgreementResponse_agreementStartDate <<data>> {
}

class "agreementEndDate" as BeModelEAgreementResponse_agreementEndDate <<data>> {
}

class "refusalReason" as BeModelEAgreementResponse_refusalReason <<data>> {
}

class "additionalInfoReason" as BeModelEAgreementResponse_additionalInfoReason <<data>> {
}

BeModelEAgreementResponse_patient "0..1" --> BeModelEAgreementResponse
BeModelEAgreementResponse_rejectionReason "0..*" --> BeModelEAgreementResponse
BeModelEAgreementResponse_serviceProvider "0..1" --> BeModelEAgreementResponse
BeModelEAgreementResponse_eAgreementType "0..1" --> BeModelEAgreementResponse
BeModelEAgreementResponse_decisionId "0..1" --> BeModelEAgreementResponse
BeModelEAgreementResponse_pathologicalSituation "0..1" --> BeModelEAgreementResponse
BeModelEAgreementResponse_decisionType "0..1" --> BeModelEAgreementResponse
BeModelEAgreementResponse_decisionDate "0..1" --> BeModelEAgreementResponse
BeModelEAgreementResponse_insurer "0..1" --> BeModelEAgreementResponse
BeModelEAgreementResponse_agreementStartDate "0..1" --> BeModelEAgreementResponse
BeModelEAgreementResponse_agreementEndDate "0..1" --> BeModelEAgreementResponse
BeModelEAgreementResponse_refusalReason "0..*" --> BeModelEAgreementResponse
BeModelEAgreementResponse_additionalInfoReason "0..*" --> BeModelEAgreementResponse
@enduml